<svg width="17" height="17" viewBox="0 0 17 17" fill="none" xmlns="http://www.w3.org/2000/svg">
<g clip-path="url(#clip0)">
<path d="M9.04719 1.08269C8.8651 1.06924 8.68258 1.06251 8.5 1.0625V0C8.70882 0.000101817 8.91757 0.00789877 9.12581 0.023375L9.04719 1.08269ZM11.1764 1.56081C10.8358 1.42939 10.4861 1.3232 10.1299 1.24312L10.3626 0.206125C10.7695 0.2975 11.1701 0.418625 11.5589 0.5695L11.1764 1.56081V1.56081ZM12.6321 2.31519C12.4802 2.21388 12.3246 2.11819 12.1656 2.02831L12.6894 1.10394C13.0527 1.30978 13.4004 1.54203 13.7296 1.79881L13.0762 2.63713C12.9321 2.52475 12.784 2.41771 12.6321 2.31625V2.31519ZM14.5807 4.21706C14.3705 3.91847 14.1386 3.63579 13.8869 3.37131L14.6561 2.63819C14.943 2.941 15.2086 3.26506 15.4498 3.60506L14.5807 4.21706V4.21706ZM15.3712 5.65356C15.3014 5.48511 15.2256 5.31925 15.1438 5.15631L16.0926 4.67819C16.2803 5.05122 16.4401 5.4376 16.5707 5.83419L15.5614 6.16675C15.5043 5.99342 15.4408 5.82224 15.3712 5.65356V5.65356ZM15.9343 8.31725C15.9257 7.95211 15.8902 7.5881 15.8281 7.22819L16.8746 7.04756C16.9458 7.45769 16.9873 7.87419 16.9979 8.29069L15.9354 8.31725H15.9343ZM15.7951 9.95138C15.8302 9.77075 15.8589 9.59119 15.8812 9.4095L16.9362 9.54019C16.8852 9.95472 16.8035 10.3649 16.6919 10.7674L15.6676 10.4837C15.7165 10.3084 15.759 10.1309 15.7951 9.95138V9.95138ZM14.7836 12.4791C14.9791 12.1709 15.1512 11.8479 15.3 11.5143L16.2711 11.9446C16.1011 12.3271 15.9046 12.6947 15.6814 13.0475L14.7836 12.4791ZM13.7594 13.7594C13.889 13.6297 14.0133 13.4959 14.1313 13.3577L14.9366 14.0516C14.8002 14.2097 14.6581 14.3628 14.5106 14.5106L13.7594 13.7594V13.7594Z" fill="#63819F"/>
<path d="M8.50039 1.0625C7.27732 1.06259 6.07316 1.3643 4.99454 1.94091C3.91593 2.51752 2.99616 3.35123 2.3167 4.3682C1.63724 5.38517 1.21907 6.55401 1.09922 7.77119C0.979371 8.98837 1.16154 10.2163 1.6296 11.3463C2.09766 12.4762 2.83716 13.4733 3.7826 14.2492C4.72804 15.0252 5.85024 15.5559 7.04979 15.7946C8.24935 16.0332 9.48925 15.9723 10.6597 15.6173C11.8301 15.2623 12.8949 14.6242 13.7598 13.7594L14.511 14.5106C13.5225 15.4995 12.3055 16.2294 10.9676 16.6356C9.62965 17.0417 8.21221 17.1116 6.84083 16.839C5.46946 16.5664 4.18649 15.9598 3.1056 15.0729C2.02471 14.1859 1.17927 13.0461 0.644195 11.7543C0.109119 10.4626 -0.0990752 9.05875 0.0380593 7.66729C0.175194 6.27582 0.653423 4.93967 1.43037 3.77721C2.20732 2.61474 3.25901 1.66187 4.49224 1.003C5.72548 0.344139 7.10219 -0.000370528 8.50039 2.99049e-07V1.0625Z" fill="#63819F"/>
<path d="M7.96875 3.1875C8.10965 3.1875 8.24477 3.24347 8.3444 3.3431C8.44403 3.44273 8.5 3.57785 8.5 3.71875V9.25438L11.951 11.2264C12.0698 11.298 12.1558 11.4133 12.1907 11.5476C12.2256 11.6818 12.2067 11.8244 12.1378 11.9448C12.069 12.0653 11.9558 12.154 11.8224 12.1921C11.689 12.2302 11.546 12.2146 11.424 12.1486L7.70525 10.0236C7.62394 9.97718 7.55635 9.91007 7.50933 9.82909C7.46231 9.74811 7.43753 9.65614 7.4375 9.5625V3.71875C7.4375 3.57785 7.49347 3.44273 7.5931 3.3431C7.69273 3.24347 7.82785 3.1875 7.96875 3.1875V3.1875Z" fill="#63819F"/>
</g>
<defs>
<clipPath id="clip0">
<rect width="17" height="17" fill="white"/>
</clipPath>
</defs>
</svg>
