<svg width="17" height="17" viewBox="0 0 17 17" fill="none" xmlns="http://www.w3.org/2000/svg">
<path d="M10.0672 12.75C8.15469 12.75 7.395 10.5315 6.66028 8.38631C5.96434 6.35269 5.24344 4.25 3.69219 4.25C3.32998 4.2713 2.98231 4.39994 2.69346 4.61953C2.40462 4.83912 2.18768 5.13971 2.07028 5.48303L1.0625 5.14463C1.08959 5.06494 1.73772 3.1875 3.69219 3.1875C6.00312 3.1875 6.88606 5.76672 7.66594 8.04206C8.30822 9.91684 8.91438 11.6875 10.0672 11.6875C10.4294 11.6662 10.7771 11.5376 11.0659 11.318C11.3548 11.0984 11.5717 10.7978 11.6891 10.4545L12.6963 10.7929C12.6698 10.8726 12.0217 12.75 10.0672 12.75Z" fill="#63819F"/>
<path d="M2.125 7.96875V14.875H15.9375V15.9375H2.125C1.84321 15.9375 1.57296 15.8256 1.3737 15.6263C1.17444 15.427 1.0625 15.1568 1.0625 14.875V1.0625H2.125V7.96875Z" fill="#63819F"/>
<path d="M4.25 6.375H5.3125V7.4375H4.25V6.375Z" fill="#63819F"/>
<path d="M2.125 6.375H3.1875V7.4375H2.125V6.375Z" fill="#63819F"/>
<path d="M8.5 6.375H9.5625V7.4375H8.5V6.375Z" fill="#63819F"/>
<path d="M10.625 6.375H11.6875V7.4375H10.625V6.375Z" fill="#63819F"/>
<path d="M12.75 6.375H13.8125V7.4375H12.75V6.375Z" fill="#63819F"/>
<path d="M14.875 6.375H15.9375V7.4375H14.875V6.375Z" fill="#63819F"/>
</svg>
