<svg width="20" height="18" viewBox="0 0 20 18" fill="none" xmlns="http://www.w3.org/2000/svg">
<path d="M2.42082 9.64948H2.38414V13.9175H0V0H2.38414V8.03505H2.42082L6.05205 4.26804H8.89468L4.36481 8.85155L8.98638 13.9175H6.14375L2.42082 9.64948Z" fill="#63819F"/>
<path d="M17.7076 9.09278C17.7076 8.05361 17.5119 7.27423 17.1207 6.75464C16.7417 6.23505 16.2037 5.97526 15.5068 5.97526C14.8588 5.97526 14.3331 6.24742 13.9296 6.79175C13.5384 7.32371 13.3427 8.05979 13.3427 9V9.18557C13.3427 10.1505 13.5384 10.899 13.9296 11.4309C14.3331 11.9505 14.8588 12.2103 15.5068 12.2103C16.1548 12.2103 16.6805 11.9443 17.084 11.4124C17.4997 10.868 17.7076 10.0948 17.7076 9.09278ZM20 9.09278C20 10.6887 19.6454 11.9258 18.9363 12.8041C18.2394 13.6701 17.3224 14.1031 16.1854 14.1031C15.0116 14.1031 14.0763 13.6515 13.3794 12.7485H13.3427V18H10.9586V4.26804H13.196L13.2327 5.62268H13.2694C14.003 4.59588 14.975 4.08247 16.1854 4.08247C17.3713 4.08247 18.3005 4.50928 18.973 5.36289C19.6577 6.2165 20 7.45979 20 9.09278Z" fill="#63819F"/>
</svg>
